<svg width="208" height="184" viewBox="0 0 208 184" fill="none" xmlns="http://www.w3.org/2000/svg">
<path fill-rule="evenodd" clip-rule="evenodd" d="M80.1591 33.7419C64.2979 35.6598 55.9208 52.791 64.6096 65.5394C65.7873 67.2669 79.5773 81.0983 102.884 103.928C111.33 112.201 114.262 113.689 122.166 113.712C136.379 113.752 146.347 102.619 143.978 89.3487C143.033 84.056 142.509 83.3907 128.13 69.2177C114.716 55.9963 115.223 56.6018 115.185 53.7547C115.072 45.2657 128.768 44.9643 130.392 53.4203L130.532 54.1516H137.743H144.953L144.824 52.7894C144.041 44.5659 136.634 36.4713 127.936 34.3332C109.588 29.824 94.4285 46.4665 102.624 62.1208C104.09 64.9207 105.168 66.1235 114.145 74.9667C127.823 88.4418 127.986 88.6103 128.662 89.9339C131.914 96.307 125.5 102.529 118.848 99.4551C117.916 99.0242 116.259 97.489 108.737 90.0836C103.79 85.2126 94.6888 76.2598 88.5129 70.1881C76.8275 58.7018 76.4986 58.3486 75.8737 56.6104C73.6486 50.4265 80.382 45.0749 86.8141 47.9144C87.5819 48.2529 87.9123 48.3199 87.9715 48.1478C88.0167 48.0154 88.2552 47.2379 88.5009 46.4198C89.4402 43.2961 91.4481 38.6393 92.6627 36.7666L93.3308 35.7364L91.6658 35.1071C88.4032 33.8739 83.6908 33.3146 80.1591 33.7419ZM59.1282 92.5815C60.414 107.641 77.5896 118.073 91.4834 112.234C92.9261 111.628 94.162 113.079 81.3846 100.374C76.4134 95.4311 72.3155 91.3056 72.2786 91.2057C72.2397 91.1011 69.4115 91.0245 65.6029 91.0245H58.9958L59.1282 92.5815Z" fill="#444444"/>
</svg>
