<svg width="520" height="320" viewBox="0 0 520 320" fill="none" xmlns="http://www.w3.org/2000/svg">
<path d="M458 30H62C49.8497 30 40 39.8497 40 52V268C40 280.15 49.8497 290 62 290H458C470.15 290 480 280.15 480 268V52C480 39.8497 470.15 30 458 30Z" fill="#DCDCDC"/>
<path d="M458 30H62C49.8497 30 40 39.8497 40 52V268C40 280.15 49.8497 290 62 290H458C470.15 290 480 280.15 480 268V52C480 39.8497 470.15 30 458 30Z" stroke="#CFCFCF" stroke-width="2"/>
<path d="M180 265C237.99 265 285 217.99 285 160C285 102.01 237.99 55 180 55C122.01 55 75 102.01 75 160C75 217.99 122.01 265 180 265Z" fill="#151515"/>
<path d="M180 252C230.81 252 272 210.81 272 160C272 109.19 230.81 68 180 68C129.19 68 88 109.19 88 160C88 210.81 129.19 252 180 252Z" stroke="#262626" stroke-width="2"/>
<path d="M180 236C221.974 236 256 201.974 256 160C256 118.026 221.974 84 180 84C138.026 84 104 118.026 104 160C104 201.974 138.026 236 180 236Z" stroke="#303030" stroke-width="2"/>
<path d="M180 218C212.033 218 238 192.033 238 160C238 127.967 212.033 102 180 102C147.967 102 122 127.967 122 160C122 192.033 147.967 218 180 218Z" stroke="#3A3A3A" stroke-width="1.8"/>
<path d="M180 192C197.673 192 212 177.673 212 160C212 142.327 197.673 128 180 128C162.327 128 148 142.327 148 160C148 177.673 162.327 192 180 192Z" fill="#F1F1F1"/>
<path d="M180 166C183.314 166 186 163.314 186 160C186 156.686 183.314 154 180 154C176.686 154 174 156.686 174 160C174 163.314 176.686 166 180 166Z" fill="#151515"/>
<path d="M180 162C181.105 162 182 161.105 182 160C182 158.895 181.105 158 180 158C178.895 158 178 158.895 178 160C178 161.105 178.895 162 180 162Z" fill="#BDBDBD"/>
<path d="M370 106C377.732 106 384 99.732 384 92C384 84.268 377.732 78 370 78C362.268 78 356 84.268 356 92C356 99.732 362.268 106 370 106Z" fill="#2A2A2A"/>
<path d="M370 98C373.314 98 376 95.3137 376 92C376 88.6863 373.314 86 370 86C366.686 86 364 88.6863 364 92C364 95.3137 366.686 98 370 98Z" fill="#E7E7E7"/>
<path d="M371.934 86.2329L267.746 30.8352C265.308 29.5388 262.281 30.4644 260.984 32.9026C259.688 35.3408 260.613 38.3683 263.052 39.6647L367.239 95.0623C369.678 96.3587 372.705 95.4331 374.001 92.995C375.298 90.5568 374.372 87.5293 371.934 86.2329Z" fill="#4A4A4A"/>
<path d="M270.451 30.0083L263.388 26.2525C259.974 24.4375 255.736 25.7334 253.921 29.1468C252.106 32.5603 253.402 36.7988 256.815 38.6138L263.879 42.3695C267.292 44.1845 271.531 42.8887 273.346 39.4752C275.161 36.0617 273.865 31.8232 270.451 30.0083Z" fill="#2F2F2F"/>
<path d="M257.676 22.0832L254.145 20.2053C252.194 19.1682 249.772 19.9087 248.735 21.8592L244.979 28.9228C243.942 30.8734 244.682 33.2954 246.633 34.3325L250.165 36.2104C252.115 37.2475 254.537 36.507 255.575 34.5565L259.33 27.4929C260.367 25.5423 259.627 23.1204 257.676 22.0832Z" fill="#6A6A6A"/>
<path d="M252.435 17.0311L248.903 15.1532C247.44 14.3753 245.623 14.9307 244.845 16.3936L238.273 28.7549C237.495 30.2178 238.05 32.0343 239.513 32.8121L243.045 34.69C244.508 35.4678 246.325 34.9125 247.102 33.4496L253.675 21.0883C254.453 19.6254 253.897 17.8089 252.435 17.0311Z" fill="#2B2B2B"/>
<path d="M239.212 26.9889L230.628 30.3528" stroke="#2B2B2B" stroke-width="2" stroke-linecap="round"/>
<path d="M360.981 77.0114L357.449 75.1335C355.011 73.8371 351.984 74.7627 350.687 77.2009L346.932 84.2645C345.635 86.7027 346.561 89.7302 348.999 91.0266L352.531 92.9045C354.969 94.2009 357.996 93.2753 359.293 90.8371L363.049 83.7735C364.345 81.3353 363.419 78.3078 360.981 77.0114Z" fill="#5B5B5B"/>
<path d="M88 258C95.1797 258 101 252.18 101 245C101 237.82 95.1797 232 88 232C80.8203 232 75 237.82 75 245C75 252.18 80.8203 258 88 258Z" fill="#2C2C2C"/>
<path d="M88 250C90.7614 250 93 247.761 93 245C93 242.239 90.7614 240 88 240C85.2386 240 83 242.239 83 245C83 247.761 85.2386 250 88 250Z" fill="#E9E9E9"/>
<path d="M421 238H395C391.134 238 388 241.134 388 245C388 248.866 391.134 252 395 252H421C424.866 252 428 248.866 428 245C428 241.134 424.866 238 421 238Z" fill="#BDBDBD"/>
<path d="M399 241H398C395.791 241 394 242.791 394 245C394 247.209 395.791 249 398 249H399C401.209 249 403 247.209 403 245C403 242.791 401.209 241 399 241Z" fill="#8F8F8F"/>
<path d="M62 54H458" stroke="white" stroke-opacity="0.35" stroke-width="2" stroke-linecap="round"/>
</svg>
